<mxfile host="app.diagrams.net" agent="Mozilla/5.0 (X11; Ubuntu; Linux x86_64; rv:129.0) Gecko/20100101 Firefox/129.0" version="24.7.7">
  <diagram name="Page-1" id="GW_NH_uWbhmIjLpSf5wQ">
    <mxGraphModel dx="984" dy="575" grid="1" gridSize="10" guides="1" tooltips="1" connect="1" arrows="1" fold="1" page="1" pageScale="1" pageWidth="850" pageHeight="1100" math="0" shadow="0">
      <root>
        <mxCell id="0" />
        <mxCell id="1" parent="0" />
        <mxCell id="uu_pa1607YgZWATwTWHK-55" value="" style="childLayout=tableLayout;recursiveResize=0;shadow=0;fillColor=none;" vertex="1" parent="1">
          <mxGeometry x="160" y="240" width="200" height="160" as="geometry" />
        </mxCell>
        <mxCell id="uu_pa1607YgZWATwTWHK-56" value="" style="shape=tableRow;horizontal=0;startSize=0;swimlaneHead=0;swimlaneBody=0;top=0;left=0;bottom=0;right=0;dropTarget=0;collapsible=0;recursiveResize=0;expand=0;fontStyle=0;fillColor=none;strokeColor=inherit;" vertex="1" parent="uu_pa1607YgZWATwTWHK-55">
          <mxGeometry width="200" height="54" as="geometry" />
        </mxCell>
        <mxCell id="uu_pa1607YgZWATwTWHK-57" value="" style="connectable=0;recursiveResize=0;strokeColor=inherit;fillColor=none;align=center;whiteSpace=wrap;html=1;" vertex="1" parent="uu_pa1607YgZWATwTWHK-56">
          <mxGeometry width="67" height="54" as="geometry">
            <mxRectangle width="67" height="54" as="alternateBounds" />
          </mxGeometry>
        </mxCell>
        <mxCell id="uu_pa1607YgZWATwTWHK-58" value="" style="connectable=0;recursiveResize=0;strokeColor=inherit;fillColor=none;align=center;whiteSpace=wrap;html=1;" vertex="1" parent="uu_pa1607YgZWATwTWHK-56">
          <mxGeometry x="67" width="66" height="54" as="geometry">
            <mxRectangle width="66" height="54" as="alternateBounds" />
          </mxGeometry>
        </mxCell>
        <mxCell id="uu_pa1607YgZWATwTWHK-59" value="" style="connectable=0;recursiveResize=0;strokeColor=inherit;fillColor=none;align=center;whiteSpace=wrap;html=1;" vertex="1" parent="uu_pa1607YgZWATwTWHK-56">
          <mxGeometry x="133" width="67" height="54" as="geometry">
            <mxRectangle width="67" height="54" as="alternateBounds" />
          </mxGeometry>
        </mxCell>
        <mxCell id="uu_pa1607YgZWATwTWHK-60" style="shape=tableRow;horizontal=0;startSize=0;swimlaneHead=0;swimlaneBody=0;top=0;left=0;bottom=0;right=0;dropTarget=0;collapsible=0;recursiveResize=0;expand=0;fontStyle=0;fillColor=none;strokeColor=inherit;" vertex="1" parent="uu_pa1607YgZWATwTWHK-55">
          <mxGeometry y="54" width="200" height="52" as="geometry" />
        </mxCell>
        <mxCell id="uu_pa1607YgZWATwTWHK-61" value="" style="connectable=0;recursiveResize=0;strokeColor=inherit;fillColor=none;align=center;whiteSpace=wrap;html=1;" vertex="1" parent="uu_pa1607YgZWATwTWHK-60">
          <mxGeometry width="67" height="52" as="geometry">
            <mxRectangle width="67" height="52" as="alternateBounds" />
          </mxGeometry>
        </mxCell>
        <mxCell id="uu_pa1607YgZWATwTWHK-62" value="" style="connectable=0;recursiveResize=0;strokeColor=inherit;fillColor=none;align=center;whiteSpace=wrap;html=1;" vertex="1" parent="uu_pa1607YgZWATwTWHK-60">
          <mxGeometry x="67" width="66" height="52" as="geometry">
            <mxRectangle width="66" height="52" as="alternateBounds" />
          </mxGeometry>
        </mxCell>
        <mxCell id="uu_pa1607YgZWATwTWHK-63" value="" style="connectable=0;recursiveResize=0;strokeColor=inherit;fillColor=none;align=center;whiteSpace=wrap;html=1;" vertex="1" parent="uu_pa1607YgZWATwTWHK-60">
          <mxGeometry x="133" width="67" height="52" as="geometry">
            <mxRectangle width="67" height="52" as="alternateBounds" />
          </mxGeometry>
        </mxCell>
        <mxCell id="uu_pa1607YgZWATwTWHK-64" style="shape=tableRow;horizontal=0;startSize=0;swimlaneHead=0;swimlaneBody=0;top=0;left=0;bottom=0;right=0;dropTarget=0;collapsible=0;recursiveResize=0;expand=0;fontStyle=0;fillColor=none;strokeColor=inherit;" vertex="1" parent="uu_pa1607YgZWATwTWHK-55">
          <mxGeometry y="106" width="200" height="54" as="geometry" />
        </mxCell>
        <mxCell id="uu_pa1607YgZWATwTWHK-65" value="" style="connectable=0;recursiveResize=0;strokeColor=inherit;fillColor=none;align=center;whiteSpace=wrap;html=1;" vertex="1" parent="uu_pa1607YgZWATwTWHK-64">
          <mxGeometry width="67" height="54" as="geometry">
            <mxRectangle width="67" height="54" as="alternateBounds" />
          </mxGeometry>
        </mxCell>
        <mxCell id="uu_pa1607YgZWATwTWHK-66" value="" style="connectable=0;recursiveResize=0;strokeColor=inherit;fillColor=none;align=center;whiteSpace=wrap;html=1;" vertex="1" parent="uu_pa1607YgZWATwTWHK-64">
          <mxGeometry x="67" width="66" height="54" as="geometry">
            <mxRectangle width="66" height="54" as="alternateBounds" />
          </mxGeometry>
        </mxCell>
        <mxCell id="uu_pa1607YgZWATwTWHK-67" value="" style="connectable=0;recursiveResize=0;strokeColor=inherit;fillColor=none;align=center;whiteSpace=wrap;html=1;" vertex="1" parent="uu_pa1607YgZWATwTWHK-64">
          <mxGeometry x="133" width="67" height="54" as="geometry">
            <mxRectangle width="67" height="54" as="alternateBounds" />
          </mxGeometry>
        </mxCell>
        <mxCell id="uu_pa1607YgZWATwTWHK-29" value="" style="childLayout=tableLayout;recursiveResize=0;shadow=0;fillColor=none;" vertex="1" parent="1">
          <mxGeometry x="160" y="80" width="200" height="160" as="geometry" />
        </mxCell>
        <mxCell id="uu_pa1607YgZWATwTWHK-30" value="" style="shape=tableRow;horizontal=0;startSize=0;swimlaneHead=0;swimlaneBody=0;top=0;left=0;bottom=0;right=0;dropTarget=0;collapsible=0;recursiveResize=0;expand=0;fontStyle=0;fillColor=none;strokeColor=inherit;" vertex="1" parent="uu_pa1607YgZWATwTWHK-29">
          <mxGeometry width="200" height="54" as="geometry" />
        </mxCell>
        <mxCell id="uu_pa1607YgZWATwTWHK-31" value="" style="connectable=0;recursiveResize=0;strokeColor=inherit;fillColor=none;align=center;whiteSpace=wrap;html=1;" vertex="1" parent="uu_pa1607YgZWATwTWHK-30">
          <mxGeometry width="67" height="54" as="geometry">
            <mxRectangle width="67" height="54" as="alternateBounds" />
          </mxGeometry>
        </mxCell>
        <mxCell id="uu_pa1607YgZWATwTWHK-32" value="" style="connectable=0;recursiveResize=0;strokeColor=inherit;fillColor=none;align=center;whiteSpace=wrap;html=1;" vertex="1" parent="uu_pa1607YgZWATwTWHK-30">
          <mxGeometry x="67" width="66" height="54" as="geometry">
            <mxRectangle width="66" height="54" as="alternateBounds" />
          </mxGeometry>
        </mxCell>
        <mxCell id="uu_pa1607YgZWATwTWHK-33" value="" style="connectable=0;recursiveResize=0;strokeColor=inherit;fillColor=none;align=center;whiteSpace=wrap;html=1;" vertex="1" parent="uu_pa1607YgZWATwTWHK-30">
          <mxGeometry x="133" width="67" height="54" as="geometry">
            <mxRectangle width="67" height="54" as="alternateBounds" />
          </mxGeometry>
        </mxCell>
        <mxCell id="uu_pa1607YgZWATwTWHK-34" style="shape=tableRow;horizontal=0;startSize=0;swimlaneHead=0;swimlaneBody=0;top=0;left=0;bottom=0;right=0;dropTarget=0;collapsible=0;recursiveResize=0;expand=0;fontStyle=0;fillColor=none;strokeColor=inherit;" vertex="1" parent="uu_pa1607YgZWATwTWHK-29">
          <mxGeometry y="54" width="200" height="52" as="geometry" />
        </mxCell>
        <mxCell id="uu_pa1607YgZWATwTWHK-35" value="" style="connectable=0;recursiveResize=0;strokeColor=inherit;fillColor=none;align=center;whiteSpace=wrap;html=1;" vertex="1" parent="uu_pa1607YgZWATwTWHK-34">
          <mxGeometry width="67" height="52" as="geometry">
            <mxRectangle width="67" height="52" as="alternateBounds" />
          </mxGeometry>
        </mxCell>
        <mxCell id="uu_pa1607YgZWATwTWHK-36" value="" style="connectable=0;recursiveResize=0;strokeColor=inherit;fillColor=none;align=center;whiteSpace=wrap;html=1;" vertex="1" parent="uu_pa1607YgZWATwTWHK-34">
          <mxGeometry x="67" width="66" height="52" as="geometry">
            <mxRectangle width="66" height="52" as="alternateBounds" />
          </mxGeometry>
        </mxCell>
        <mxCell id="uu_pa1607YgZWATwTWHK-37" value="&amp;nbsp;" style="connectable=0;recursiveResize=0;strokeColor=inherit;fillColor=none;align=center;whiteSpace=wrap;html=1;" vertex="1" parent="uu_pa1607YgZWATwTWHK-34">
          <mxGeometry x="133" width="67" height="52" as="geometry">
            <mxRectangle width="67" height="52" as="alternateBounds" />
          </mxGeometry>
        </mxCell>
        <mxCell id="uu_pa1607YgZWATwTWHK-38" style="shape=tableRow;horizontal=0;startSize=0;swimlaneHead=0;swimlaneBody=0;top=0;left=0;bottom=0;right=0;dropTarget=0;collapsible=0;recursiveResize=0;expand=0;fontStyle=0;fillColor=none;strokeColor=inherit;" vertex="1" parent="uu_pa1607YgZWATwTWHK-29">
          <mxGeometry y="106" width="200" height="54" as="geometry" />
        </mxCell>
        <mxCell id="uu_pa1607YgZWATwTWHK-39" value="" style="connectable=0;recursiveResize=0;strokeColor=inherit;fillColor=none;align=center;whiteSpace=wrap;html=1;" vertex="1" parent="uu_pa1607YgZWATwTWHK-38">
          <mxGeometry width="67" height="54" as="geometry">
            <mxRectangle width="67" height="54" as="alternateBounds" />
          </mxGeometry>
        </mxCell>
        <mxCell id="uu_pa1607YgZWATwTWHK-40" value="" style="connectable=0;recursiveResize=0;strokeColor=inherit;fillColor=none;align=center;whiteSpace=wrap;html=1;" vertex="1" parent="uu_pa1607YgZWATwTWHK-38">
          <mxGeometry x="67" width="66" height="54" as="geometry">
            <mxRectangle width="66" height="54" as="alternateBounds" />
          </mxGeometry>
        </mxCell>
        <mxCell id="uu_pa1607YgZWATwTWHK-41" value="" style="connectable=0;recursiveResize=0;strokeColor=inherit;fillColor=none;align=center;whiteSpace=wrap;html=1;" vertex="1" parent="uu_pa1607YgZWATwTWHK-38">
          <mxGeometry x="133" width="67" height="54" as="geometry">
            <mxRectangle width="67" height="54" as="alternateBounds" />
          </mxGeometry>
        </mxCell>
        <mxCell id="uu_pa1607YgZWATwTWHK-42" value="" style="childLayout=tableLayout;recursiveResize=0;shadow=0;fillColor=none;" vertex="1" parent="1">
          <mxGeometry x="360" y="80" width="200" height="160" as="geometry" />
        </mxCell>
        <mxCell id="uu_pa1607YgZWATwTWHK-43" value="" style="shape=tableRow;horizontal=0;startSize=0;swimlaneHead=0;swimlaneBody=0;top=0;left=0;bottom=0;right=0;dropTarget=0;collapsible=0;recursiveResize=0;expand=0;fontStyle=0;fillColor=none;strokeColor=inherit;" vertex="1" parent="uu_pa1607YgZWATwTWHK-42">
          <mxGeometry width="200" height="54" as="geometry" />
        </mxCell>
        <mxCell id="uu_pa1607YgZWATwTWHK-44" value="" style="connectable=0;recursiveResize=0;strokeColor=inherit;fillColor=none;align=center;whiteSpace=wrap;html=1;" vertex="1" parent="uu_pa1607YgZWATwTWHK-43">
          <mxGeometry width="67" height="54" as="geometry">
            <mxRectangle width="67" height="54" as="alternateBounds" />
          </mxGeometry>
        </mxCell>
        <mxCell id="uu_pa1607YgZWATwTWHK-45" value="" style="connectable=0;recursiveResize=0;strokeColor=inherit;fillColor=none;align=center;whiteSpace=wrap;html=1;" vertex="1" parent="uu_pa1607YgZWATwTWHK-43">
          <mxGeometry x="67" width="66" height="54" as="geometry">
            <mxRectangle width="66" height="54" as="alternateBounds" />
          </mxGeometry>
        </mxCell>
        <mxCell id="uu_pa1607YgZWATwTWHK-46" value="" style="connectable=0;recursiveResize=0;strokeColor=inherit;fillColor=none;align=center;whiteSpace=wrap;html=1;" vertex="1" parent="uu_pa1607YgZWATwTWHK-43">
          <mxGeometry x="133" width="67" height="54" as="geometry">
            <mxRectangle width="67" height="54" as="alternateBounds" />
          </mxGeometry>
        </mxCell>
        <mxCell id="uu_pa1607YgZWATwTWHK-47" style="shape=tableRow;horizontal=0;startSize=0;swimlaneHead=0;swimlaneBody=0;top=0;left=0;bottom=0;right=0;dropTarget=0;collapsible=0;recursiveResize=0;expand=0;fontStyle=0;fillColor=none;strokeColor=inherit;" vertex="1" parent="uu_pa1607YgZWATwTWHK-42">
          <mxGeometry y="54" width="200" height="52" as="geometry" />
        </mxCell>
        <mxCell id="uu_pa1607YgZWATwTWHK-48" value="" style="connectable=0;recursiveResize=0;strokeColor=inherit;fillColor=none;align=center;whiteSpace=wrap;html=1;" vertex="1" parent="uu_pa1607YgZWATwTWHK-47">
          <mxGeometry width="67" height="52" as="geometry">
            <mxRectangle width="67" height="52" as="alternateBounds" />
          </mxGeometry>
        </mxCell>
        <mxCell id="uu_pa1607YgZWATwTWHK-49" value="" style="connectable=0;recursiveResize=0;strokeColor=inherit;fillColor=none;align=center;whiteSpace=wrap;html=1;" vertex="1" parent="uu_pa1607YgZWATwTWHK-47">
          <mxGeometry x="67" width="66" height="52" as="geometry">
            <mxRectangle width="66" height="52" as="alternateBounds" />
          </mxGeometry>
        </mxCell>
        <mxCell id="uu_pa1607YgZWATwTWHK-50" value="" style="connectable=0;recursiveResize=0;strokeColor=inherit;fillColor=none;align=center;whiteSpace=wrap;html=1;" vertex="1" parent="uu_pa1607YgZWATwTWHK-47">
          <mxGeometry x="133" width="67" height="52" as="geometry">
            <mxRectangle width="67" height="52" as="alternateBounds" />
          </mxGeometry>
        </mxCell>
        <mxCell id="uu_pa1607YgZWATwTWHK-51" style="shape=tableRow;horizontal=0;startSize=0;swimlaneHead=0;swimlaneBody=0;top=0;left=0;bottom=0;right=0;dropTarget=0;collapsible=0;recursiveResize=0;expand=0;fontStyle=0;fillColor=none;strokeColor=inherit;" vertex="1" parent="uu_pa1607YgZWATwTWHK-42">
          <mxGeometry y="106" width="200" height="54" as="geometry" />
        </mxCell>
        <mxCell id="uu_pa1607YgZWATwTWHK-52" value="" style="connectable=0;recursiveResize=0;strokeColor=inherit;fillColor=none;align=center;whiteSpace=wrap;html=1;" vertex="1" parent="uu_pa1607YgZWATwTWHK-51">
          <mxGeometry width="67" height="54" as="geometry">
            <mxRectangle width="67" height="54" as="alternateBounds" />
          </mxGeometry>
        </mxCell>
        <mxCell id="uu_pa1607YgZWATwTWHK-53" value="" style="connectable=0;recursiveResize=0;strokeColor=inherit;fillColor=none;align=center;whiteSpace=wrap;html=1;" vertex="1" parent="uu_pa1607YgZWATwTWHK-51">
          <mxGeometry x="67" width="66" height="54" as="geometry">
            <mxRectangle width="66" height="54" as="alternateBounds" />
          </mxGeometry>
        </mxCell>
        <mxCell id="uu_pa1607YgZWATwTWHK-54" value="" style="connectable=0;recursiveResize=0;strokeColor=inherit;fillColor=none;align=center;whiteSpace=wrap;html=1;" vertex="1" parent="uu_pa1607YgZWATwTWHK-51">
          <mxGeometry x="133" width="67" height="54" as="geometry">
            <mxRectangle width="67" height="54" as="alternateBounds" />
          </mxGeometry>
        </mxCell>
        <mxCell id="uu_pa1607YgZWATwTWHK-9" value="" style="shape=ellipse;fillColor=#0065FF;strokeColor=none;html=1;sketch=0;" vertex="1" parent="1">
          <mxGeometry x="287" y="130" width="10" height="10" as="geometry" />
        </mxCell>
        <mxCell id="uu_pa1607YgZWATwTWHK-10" value="" style="shape=ellipse;fillColor=#0065FF;strokeColor=none;html=1;sketch=0;" vertex="1" parent="1">
          <mxGeometry x="194" y="234" width="10" height="10" as="geometry" />
        </mxCell>
        <mxCell id="uu_pa1607YgZWATwTWHK-82" value="" style="shape=ellipse;fillColor=#0065FF;strokeColor=none;html=1;sketch=0;" vertex="1" parent="1">
          <mxGeometry x="356" y="181" width="10" height="10" as="geometry" />
        </mxCell>
        <mxCell id="uu_pa1607YgZWATwTWHK-83" value="" style="shape=ellipse;fillColor=#0065FF;strokeColor=none;html=1;sketch=0;" vertex="1" parent="1">
          <mxGeometry x="423" y="288" width="10" height="10" as="geometry" />
        </mxCell>
        <mxCell id="uu_pa1607YgZWATwTWHK-84" value="" style="shape=ellipse;fillColor=#0065FF;strokeColor=none;html=1;sketch=0;" vertex="1" parent="1">
          <mxGeometry x="521" y="76" width="10" height="10" as="geometry" />
        </mxCell>
        <mxCell id="uu_pa1607YgZWATwTWHK-85" value="" style="shape=ellipse;fillColor=#0065FF;strokeColor=none;html=1;sketch=0;" vertex="1" parent="1">
          <mxGeometry x="488" y="340" width="10" height="10" as="geometry" />
        </mxCell>
        <mxCell id="uu_pa1607YgZWATwTWHK-86" value="" style="childLayout=tableLayout;recursiveResize=0;shadow=0;fillColor=none;" vertex="1" parent="1">
          <mxGeometry x="360" y="240" width="200" height="160" as="geometry" />
        </mxCell>
        <mxCell id="uu_pa1607YgZWATwTWHK-87" value="" style="shape=tableRow;horizontal=0;startSize=0;swimlaneHead=0;swimlaneBody=0;top=0;left=0;bottom=0;right=0;dropTarget=0;collapsible=0;recursiveResize=0;expand=0;fontStyle=0;fillColor=none;strokeColor=inherit;" vertex="1" parent="uu_pa1607YgZWATwTWHK-86">
          <mxGeometry width="200" height="54" as="geometry" />
        </mxCell>
        <mxCell id="uu_pa1607YgZWATwTWHK-88" value="" style="connectable=0;recursiveResize=0;strokeColor=inherit;fillColor=none;align=center;whiteSpace=wrap;html=1;" vertex="1" parent="uu_pa1607YgZWATwTWHK-87">
          <mxGeometry width="67" height="54" as="geometry">
            <mxRectangle width="67" height="54" as="alternateBounds" />
          </mxGeometry>
        </mxCell>
        <mxCell id="uu_pa1607YgZWATwTWHK-89" value="" style="connectable=0;recursiveResize=0;strokeColor=inherit;fillColor=none;align=center;whiteSpace=wrap;html=1;" vertex="1" parent="uu_pa1607YgZWATwTWHK-87">
          <mxGeometry x="67" width="66" height="54" as="geometry">
            <mxRectangle width="66" height="54" as="alternateBounds" />
          </mxGeometry>
        </mxCell>
        <mxCell id="uu_pa1607YgZWATwTWHK-90" value="" style="connectable=0;recursiveResize=0;strokeColor=inherit;fillColor=none;align=center;whiteSpace=wrap;html=1;" vertex="1" parent="uu_pa1607YgZWATwTWHK-87">
          <mxGeometry x="133" width="67" height="54" as="geometry">
            <mxRectangle width="67" height="54" as="alternateBounds" />
          </mxGeometry>
        </mxCell>
        <mxCell id="uu_pa1607YgZWATwTWHK-91" style="shape=tableRow;horizontal=0;startSize=0;swimlaneHead=0;swimlaneBody=0;top=0;left=0;bottom=0;right=0;dropTarget=0;collapsible=0;recursiveResize=0;expand=0;fontStyle=0;fillColor=none;strokeColor=inherit;" vertex="1" parent="uu_pa1607YgZWATwTWHK-86">
          <mxGeometry y="54" width="200" height="52" as="geometry" />
        </mxCell>
        <mxCell id="uu_pa1607YgZWATwTWHK-92" value="" style="connectable=0;recursiveResize=0;strokeColor=inherit;fillColor=none;align=center;whiteSpace=wrap;html=1;" vertex="1" parent="uu_pa1607YgZWATwTWHK-91">
          <mxGeometry width="67" height="52" as="geometry">
            <mxRectangle width="67" height="52" as="alternateBounds" />
          </mxGeometry>
        </mxCell>
        <mxCell id="uu_pa1607YgZWATwTWHK-93" value="" style="connectable=0;recursiveResize=0;strokeColor=inherit;fillColor=none;align=center;whiteSpace=wrap;html=1;" vertex="1" parent="uu_pa1607YgZWATwTWHK-91">
          <mxGeometry x="67" width="66" height="52" as="geometry">
            <mxRectangle width="66" height="52" as="alternateBounds" />
          </mxGeometry>
        </mxCell>
        <mxCell id="uu_pa1607YgZWATwTWHK-94" value="" style="connectable=0;recursiveResize=0;strokeColor=inherit;fillColor=none;align=center;whiteSpace=wrap;html=1;" vertex="1" parent="uu_pa1607YgZWATwTWHK-91">
          <mxGeometry x="133" width="67" height="52" as="geometry">
            <mxRectangle width="67" height="52" as="alternateBounds" />
          </mxGeometry>
        </mxCell>
        <mxCell id="uu_pa1607YgZWATwTWHK-95" style="shape=tableRow;horizontal=0;startSize=0;swimlaneHead=0;swimlaneBody=0;top=0;left=0;bottom=0;right=0;dropTarget=0;collapsible=0;recursiveResize=0;expand=0;fontStyle=0;fillColor=none;strokeColor=inherit;" vertex="1" parent="uu_pa1607YgZWATwTWHK-86">
          <mxGeometry y="106" width="200" height="54" as="geometry" />
        </mxCell>
        <mxCell id="uu_pa1607YgZWATwTWHK-96" value="" style="connectable=0;recursiveResize=0;strokeColor=inherit;fillColor=none;align=center;whiteSpace=wrap;html=1;" vertex="1" parent="uu_pa1607YgZWATwTWHK-95">
          <mxGeometry width="67" height="54" as="geometry">
            <mxRectangle width="67" height="54" as="alternateBounds" />
          </mxGeometry>
        </mxCell>
        <mxCell id="uu_pa1607YgZWATwTWHK-97" value="" style="connectable=0;recursiveResize=0;strokeColor=inherit;fillColor=none;align=center;whiteSpace=wrap;html=1;" vertex="1" parent="uu_pa1607YgZWATwTWHK-95">
          <mxGeometry x="67" width="66" height="54" as="geometry">
            <mxRectangle width="66" height="54" as="alternateBounds" />
          </mxGeometry>
        </mxCell>
        <mxCell id="uu_pa1607YgZWATwTWHK-98" value="" style="connectable=0;recursiveResize=0;strokeColor=inherit;fillColor=none;align=center;whiteSpace=wrap;html=1;" vertex="1" parent="uu_pa1607YgZWATwTWHK-95">
          <mxGeometry x="133" width="67" height="54" as="geometry">
            <mxRectangle width="67" height="54" as="alternateBounds" />
          </mxGeometry>
        </mxCell>
        <mxCell id="uu_pa1607YgZWATwTWHK-99" value="mean = 65" style="text;html=1;align=center;verticalAlign=middle;whiteSpace=wrap;rounded=0;" vertex="1" parent="1">
          <mxGeometry x="54" y="224" width="60" height="30" as="geometry" />
        </mxCell>
        <mxCell id="uu_pa1607YgZWATwTWHK-100" value="65" style="text;html=1;align=center;verticalAlign=middle;whiteSpace=wrap;rounded=0;" vertex="1" parent="1">
          <mxGeometry x="108" y="224" width="60" height="30" as="geometry" />
        </mxCell>
        <mxCell id="uu_pa1607YgZWATwTWHK-101" value="70" style="text;html=1;align=center;verticalAlign=middle;whiteSpace=wrap;rounded=0;" vertex="1" parent="1">
          <mxGeometry x="110" y="171" width="60" height="30" as="geometry" />
        </mxCell>
        <mxCell id="uu_pa1607YgZWATwTWHK-102" value="75" style="text;html=1;align=center;verticalAlign=middle;whiteSpace=wrap;rounded=0;" vertex="1" parent="1">
          <mxGeometry x="110" y="121" width="60" height="30" as="geometry" />
        </mxCell>
        <mxCell id="uu_pa1607YgZWATwTWHK-103" value="80" style="text;html=1;align=center;verticalAlign=middle;whiteSpace=wrap;rounded=0;" vertex="1" parent="1">
          <mxGeometry x="114" y="66" width="60" height="30" as="geometry" />
        </mxCell>
        <mxCell id="uu_pa1607YgZWATwTWHK-104" value="60" style="text;html=1;align=center;verticalAlign=middle;whiteSpace=wrap;rounded=0;" vertex="1" parent="1">
          <mxGeometry x="107" y="278" width="60" height="30" as="geometry" />
        </mxCell>
        <mxCell id="uu_pa1607YgZWATwTWHK-105" value="55" style="text;html=1;align=center;verticalAlign=middle;whiteSpace=wrap;rounded=0;" vertex="1" parent="1">
          <mxGeometry x="105" y="331" width="60" height="30" as="geometry" />
        </mxCell>
        <mxCell id="uu_pa1607YgZWATwTWHK-106" value="50" style="text;html=1;align=center;verticalAlign=middle;whiteSpace=wrap;rounded=0;" vertex="1" parent="1">
          <mxGeometry x="104" y="383" width="60" height="30" as="geometry" />
        </mxCell>
        <mxCell id="uu_pa1607YgZWATwTWHK-107" value="" style="endArrow=classic;startArrow=classic;html=1;rounded=0;entryX=1;entryY=0;entryDx=0;entryDy=0;exitX=1;exitY=0;exitDx=0;exitDy=0;" edge="1" parent="1" source="uu_pa1607YgZWATwTWHK-56" target="uu_pa1607YgZWATwTWHK-38">
          <mxGeometry width="50" height="50" relative="1" as="geometry">
            <mxPoint x="390" y="330" as="sourcePoint" />
            <mxPoint x="440" y="280" as="targetPoint" />
          </mxGeometry>
        </mxCell>
        <mxCell id="uu_pa1607YgZWATwTWHK-108" value="5" style="text;html=1;align=center;verticalAlign=middle;whiteSpace=wrap;rounded=0;" vertex="1" parent="1">
          <mxGeometry x="340" y="196" width="60" height="30" as="geometry" />
        </mxCell>
        <mxCell id="uu_pa1607YgZWATwTWHK-115" value="" style="endArrow=classic;startArrow=classic;html=1;rounded=0;entryX=0.34;entryY=1;entryDx=0;entryDy=0;entryPerimeter=0;exitX=0.335;exitY=0.077;exitDx=0;exitDy=0;exitPerimeter=0;" edge="1" parent="1" source="uu_pa1607YgZWATwTWHK-91" target="uu_pa1607YgZWATwTWHK-51">
          <mxGeometry width="50" height="50" relative="1" as="geometry">
            <mxPoint x="390" y="330" as="sourcePoint" />
            <mxPoint x="440" y="280" as="targetPoint" />
          </mxGeometry>
        </mxCell>
        <mxCell id="uu_pa1607YgZWATwTWHK-116" value="-5" style="text;html=1;align=center;verticalAlign=middle;whiteSpace=wrap;rounded=0;" vertex="1" parent="1">
          <mxGeometry x="407" y="254" width="60" height="30" as="geometry" />
        </mxCell>
        <mxCell id="uu_pa1607YgZWATwTWHK-117" value="p1" style="text;html=1;align=center;verticalAlign=middle;whiteSpace=wrap;rounded=0;" vertex="1" parent="1">
          <mxGeometry x="165" y="240" width="60" height="30" as="geometry" />
        </mxCell>
        <mxCell id="uu_pa1607YgZWATwTWHK-118" value="p4" style="text;html=1;align=center;verticalAlign=middle;whiteSpace=wrap;rounded=0;" vertex="1" parent="1">
          <mxGeometry x="390" y="290" width="60" height="30" as="geometry" />
        </mxCell>
        <mxCell id="uu_pa1607YgZWATwTWHK-119" value="p2" style="text;html=1;align=center;verticalAlign=middle;whiteSpace=wrap;rounded=0;" vertex="1" parent="1">
          <mxGeometry x="287" y="110" width="60" height="30" as="geometry" />
        </mxCell>
        <mxCell id="uu_pa1607YgZWATwTWHK-120" value="p3" style="text;html=1;align=center;verticalAlign=middle;whiteSpace=wrap;rounded=0;" vertex="1" parent="1">
          <mxGeometry x="347" y="161" width="60" height="30" as="geometry" />
        </mxCell>
        <mxCell id="uu_pa1607YgZWATwTWHK-121" value="p5" style="text;html=1;align=center;verticalAlign=middle;whiteSpace=wrap;rounded=0;" vertex="1" parent="1">
          <mxGeometry x="450" y="340" width="60" height="30" as="geometry" />
        </mxCell>
        <mxCell id="uu_pa1607YgZWATwTWHK-122" value="p6" style="text;html=1;align=center;verticalAlign=middle;whiteSpace=wrap;rounded=0;" vertex="1" parent="1">
          <mxGeometry x="496" y="76" width="60" height="30" as="geometry" />
        </mxCell>
      </root>
    </mxGraphModel>
  </diagram>
</mxfile>
